# AST/ASF file generated using VICON BodyLanguage
# -----------------------------------------------
:version 1.10
:name VICON
:units
  mass 1.0
  length 0.45
  angle deg
:documentation
   .ast/.asf automatically generated from VICON data using
   VICON BodyBuilder and BodyLanguage model FoxedUp or BRILLIANT.MOD
:root
   order TX TY TZ RX RY RZ
   axis XYZ
   position 0 0 0  
   orientation 0 -0 0 
:bonedata
  begin
     id 1 
     name lhipjoint
     direction 0.432694 -0.693742 0.575759 
     length 2.19277 
     axis 0 -0 0  XYZ
  end
  begin
     id 2 
     name lfemur
     direction 0.34202 -0.939693 0  
     length 6.69022  
     axis 0 -0 20  XYZ
    dof rx ry rz
    limits (-160.0 20.0)
           (-70.0 70.0)
           (-60.0 70.0)
  end
  begin
     id 3 
     name ltibia
     direction 0.34202 -0.939693 0   
     length 6.50337   
     axis 0 -0 20   XYZ
    dof rx
    limits (-10.0 170.0)
  end
  begin
     id 4 
     name lfoot
     direction 0.158999 -0.435969 0.885805   
     length 2.70564   
     axis -90 -1.13533e-015 20   XYZ
    dof rx rz
    limits (-45.0 90.0)
           (-70.0 20.0)
  end
  begin
     id 5 
     name ltoes
     direction -0.00592919 0.00964381 0.999936   
     length 1.29929   
     axis -90 -1.13533e-015 20   XYZ
    dof rx
    limits (-90.0 20.0)
  end
  begin
     id 6 
     name rhipjoint
     direction -0.414359 -0.700339 0.581234   
     length 2.17212  
     axis 0 -0 0  XYZ 
  end
  begin
     id 7 
     name rfemur
     direction -0.34202 -0.939693 0   
     length 7.17659   
     axis 0 -0 -20   XYZ
    dof rx ry rz
    limits (-160.0 20.0)
           (-70.0 70.0)
           (-70.0 60.0)
  end
  begin
     id 8 
     name rtibia
     direction -0.34202 -0.939693 0   
     length 6.36669   
     axis 0 -0 -20   XYZ
    dof rx
    limits (-10.0 170.0)
 end
 begin
     id 9 
     name rfoot
     direction -0.137064 -0.37658 0.916188   
     length 2.22351  
     axis -90 1.13533e-015 -20   XYZ
    dof rx rz
    limits (-45.0 90.0)
           (-20.0 70.0)
  end
  begin
     id 10 
     name rtoes
     direction -0.000784077 -0.00289101 0.999996   
     length 1.09522   
     axis -90 1.13533e-015 -20   XYZ
    dof rx
    limits (-90.0 20.0)
  end
  begin
     id 11 
     name lowerback
     direction -0.0176242 0.984912 -0.172157   
     length 1.65301   
     axis 0 -0 0   XYZ
    dof rx ry rz
    limits (-20.0 45.0)
           (-30.0 30.0)
           (-30.0 30.0)
  end
  begin
     id 12 
     name upperback
     direction -0.00218128 0.998776 -0.0494072   
     length 1.67776   
     axis 0 -0 0   XYZ
    dof rx ry rz
    limits (-20.0 45.0)
           (-30.0 30.0)
           (-30.0 30.0)
  end
  begin
     id 13 
     name thorax
     direction 0.00544186 0.999658 0.0255711   
     length 1.72293   
     axis 0 -0 0   XYZ
    dof rx ry rz
    limits (-20.0 45.0)
           (-30.0 30.0)
           (-30.0 30.0)
  end
  begin
     id 14 
     name lowerneck
     direction -0.105325 0.983841 0.144785   
     length 2.14226   
     axis 0 -0 0   XYZ
    dof rx ry rz
    limits (-20.0 45.0)
           (-30.0 30.0)
           (-30.0 30.0)
  end
  begin
     id 15 
     name upperneck
     direction 0.0547957 0.988053 -0.144041   
     length 2.17508   
     axis 0 -0 0   XYZ
    dof rx ry rz
    limits (-20.0 45.0)
           (-30.0 30.0)
           (-30.0 30.0)
  end
  begin
     id 16
     name head
     direction 0.0247488 0.997534 -0.0656813  
     length 2.20048  
     axis 0 -0 0   XYZ
    dof rx ry rz
    limits (-20.0 45.0)
           (-30.0 30.0)
           (-30.0 30.0)
  end
  begin
     id 17 
     name lclavicle
     direction 0.820559 0.567247 -0.0701026  
     length 4.09615  
     axis 0 -0 0   XYZ
    dof ry rz
    limits (-20.0 10.0)
           (0.0 20.0)
  end
  begin
     id 18 
     name lhumerus
     direction 0.999977 -0.0067566 -9.96392e-005   
     length 4.59333   
     axis -180 -30 -90   XYZ
    dof rx ry rz
    limits (-60.0 90.0)
           (-90.0 90.0)
           (-90.0 90.0)
  end
  begin
     id 19
     name lradius
     direction 1 -4.48982e-011 -2.53425e-027   
     length 2.81151   
     axis -180 -30 -90   XYZ
    dof rx
    limits (-10.0 170.0)
  end
  begin
     id 20
     name lwrist
     direction 1 -4.48939e-011 -7.39254e-028   
     length 1.40576   
     axis 2.56395e-016 90 90   XYZ
    dof ry
    limits (-180.0 0.0)
 end
  begin
     id 21 
     name lhand
     direction 1 -4.48939e-011 -1.47851e-027   
     length 0.895651   
     axis 9.43423e-016 90 90   XYZ
    dof rx rz
    limits (-90.0 90.0)
           (-45.0 45.0)
  end
  begin
     id 22 
     name lfingers
     direction 1 -4.48978e-011 -2.95702e-027   
     length 0.722097   
     axis 1.88685e-015 90 90   XYZ
    dof rx
    limits (0.0 90.0)
  end
  begin
     id 23
     name lthumb
     direction 0.707107 -6.34931e-011 0.707107   
     length 1.03679   
     axis -90 45 -9.86935e-015   XYZ
    dof rx rz
    limits (-45.0 45.0)
           (-45.0 45.0)
  end
  begin
     id 24 
     name rclavicle
     direction -0.831414 0.553102 -0.0531864   
     length 4.24872  
     axis 0 -0 0   XYZ 
    dof ry rz
    limits (-10.0 20.0)
           (-20.0 0.0)
  end
  begin
     id 25 
     name rhumerus
     direction -0.999916 -0.000939607 0.0129331  
     length 4.74834   
     axis -180 30 90   XYZ
    dof rx ry rz
    limits (-90.0 60.0)
           (-90.0 90.0)
           (-90.0 90.0)
  end
  begin
     id 26 
     name rradius
     direction -1 -4.48956e-011 -1.31752e-027   
     length 2.79907   
     axis -180 30 90   XYZ
    dof rx
    limits (-10.0 170.0)
  end
  begin
     id 27 
     name rwrist
     direction -1 -4.4897e-011 -7.39254e-028   
     length 1.39954   
     axis 2.56395e-016 -90 -90   XYZ
    dof ry
    limits (-180.0 0.0)
  end
  begin
     id 28
     name rhand
     direction -0.999997 -0.00250697 0.000800838   
     length 0.953304   
     axis 9.43423e-016 -90 -90   XYZ
    dof rx rz
    limits (-90.0 90.0)
           (-45.0 45.0)
  end
  begin
     id 29
     name rfingers
     direction -1 -4.48954e-011 -2.95702e-027   
     length 0.763342   
     axis 1.88685e-015 -90 -90   XYZ
    dof rx
    limits (0.0 90.0)
  end
  begin
     id 30
     name rthumb
     direction -0.709701 -0.00217037 0.7045   
     length 1.10115   
     axis -90 -45 9.86935e-015   XYZ
    dof rx rz
    limits (-45.0 45.0)
           (-45.0 45.0)
  end
:hierarchy
  begin
    root lhipjoint rhipjoint lowerback
    lhipjoint lfemur
    lfemur ltibia
    ltibia lfoot
    lfoot ltoes
    rhipjoint rfemur
    rfemur rtibia
    rtibia rfoot
    rfoot rtoes
    lowerback upperback
    upperback thorax
    thorax lowerneck lclavicle rclavicle
    lowerneck upperneck
    upperneck head
    lclavicle lhumerus
    lhumerus lradius
    lradius lwrist
    lwrist lhand lthumb
    lhand lfingers
    rclavicle rhumerus
    rhumerus rradius
    rradius rwrist
    rwrist rhand rthumb
    rhand rfingers
  end

#!OML:ASF G:\ViconDB\ViconDB\414\test\team2\shane.ASF
:FULLY-SPECIFIED
:DEGREES
95
root 5.67246 16.9941 -21.7068 -8.89967 1.17248 -3.29555
lowerback 8.13151 -4.38473 -2.07131
upperback 4.48719 -5.96988 3.64372
thorax 0.724868 -3.09779 5.35003
lowerneck -17.5201 -2.32264 -9.50596
upperneck 24.4957 -2.92185 8.79457
head 11.0877 -1.15683 4.40844
rclavicle 1.09332e-015 -9.54166e-015
rhumerus -47.7655 1.82752 -77.527
rradius 26.3719
rwrist 38.5191
rhand -28.9773 -13.6694
rfingers 7.12502
rthumb -2.32982 -43.6364
lclavicle 1.25433e-013 -6.91771e-014
lhumerus -18.0672 -18.0799 96.5511
lradius 34.6712
lwrist -16.4641
lhand -42.8047 8.05655
lfingers 7.12502
lthumb -15.6703 37.442
rfemur -24.6905 -9.4058 17.466
rtibia 41.5545
rfoot 0.39905 2.60052
rtoes -17.9563
lfemur 22.3917 2.79967 -13.4743
ltibia 12.4336
lfoot -18.4692 -12.7067
ltoes -16.672
96
root 5.66217 17.0045 -21.5448 -8.75063 1.44867 -3.33831
lowerback 8.10166 -4.61691 -2.03209
upperback 4.15534 -6.26917 3.853
thorax 0.44918 -3.2392 5.5784
lowerneck -17.2006 -2.1281 -9.34118
upperneck 24.7086 -2.63146 8.41441
head 11.0646 -1.06387 4.28447
rclavicle 1.07741e-013 -6.20208e-014
rhumerus -49.0175 1.1582 -75.982
rradius 26.2908
rwrist 38.928
rhand -28.8306 -13.6081
rfingers 7.12502
rthumb -2.18814 -43.5766
lclavicle 1.07741e-013 -6.20208e-014
lhumerus -18.1019 -18.7344 96.5669
lradius 35.2955
lwrist -16.032
lhand -42.9309 7.85717
lfingers 7.12502
lthumb -15.7918 37.233
rfemur -24.879 -9.46135 17.47
rtibia 39.7464
rfoot 1.66946 2.79169
rtoes -17.2245
lfemur 24.0362 2.35657 -13.3508
ltibia 9.66762
lfoot -17.1176 -13.1071
ltoes -16.7331
97
root 5.65291 16.9987 -21.3769 -8.60542 1.68683 -3.25368
lowerback 7.92835 -4.80142 -2.06581
upperback 3.92974 -6.5129 3.96206
thorax 0.35445 -3.35786 5.71999
lowerneck -16.9702 -1.97153 -8.96708
upperneck 24.8246 -2.41816 7.94876
head 11.0293 -0.993316 4.07839
rclavicle -8.99501e-015 2.70347e-014
rhumerus -49.6772 0.911303 -75.4423
rradius 26.4263
rwrist 38.962
rhand -28.7403 -13.7554
rfingers 7.12502
rthumb -2.10094 -43.7248
lclavicle -8.99501e-015 2.70347e-014
lhumerus -18.0135 -19.3152 96.4012
lradius 35.9762
lwrist -15.9392
lhand -42.8197 7.90593
lfingers 7.12502
lthumb -15.6847 37.2902
rfemur -25.0083 -9.49062 17.2768
rtibia 38.0718
rfoot 2.56628 3.37688
rtoes -16.9485
lfemur 26.4264 2.00665 -13.4474
ltibia 5.45996
lfoot -15.2984 -13.5316
ltoes -17.2286
98
root 5.64372 16.9958 -21.2099 -8.49503 1.90449 -3.12059
lowerback 7.78174 -4.97643 -2.1484
upperback 3.77799 -6.74911 4.15338
thorax 0.338945 -3.4783 5.97201
lowerneck -16.9219 -1.85439 -8.9369
upperneck 24.9224 -2.17335 7.60303
head 11.0281 -0.922916 3.98183
rclavicle 4.7112e-014 -9.54166e-015
rhumerus -50.1479 0.995701 -74.9128
rradius 26.5498
rwrist 38.8634
rhand -28.705 -13.9932
rfingers 7.12502
rthumb -2.06685 -43.9629
lclavicle 4.7112e-014 -9.54166e-015
lhumerus -17.6455 -19.8817 96.3304
lradius 36.489
lwrist -15.8616
lhand -42.6302 7.6027
lfingers 7.12502
lthumb -15.5022 37.0012
rfemur -25.1418 -9.67066 17.0848
rtibia 36.6893
rfoot 3.00649 3.84907
rtoes -16.4634
lfemur 29.3744 1.64874 -13.5341
ltibia 8.5875e-014
lfoot -12.4972 -14.2587
ltoes -16.7089
99
root 5.63651 16.9757 -21.0495 -8.27736 2.22417 -3.05861
lowerback 7.59223 -5.17403 -2.0286
upperback 3.58118 -6.99965 4.26749
thorax 0.26874 -3.59839 6.02903
lowerneck -16.7644 -1.77724 -8.80663
upperneck 24.945 -2.03827 7.31732
head 10.9884 -0.886683 3.87174
rclavicle 6.29153e-014 3.18055e-015
rhumerus -50.5994 0.708408 -74.3617
rradius 26.6689
rwrist 38.5183
rhand -28.547 -13.6562
rfingers 7.12502
rthumb -1.91424 -43.6273
lclavicle 6.29153e-014 3.18055e-015
lhumerus -17.3689 -20.5686 96.1499
lradius 37.1729
lwrist -15.5048
lhand -42.4138 7.17545
lfingers 7.12502
lthumb -15.2938 36.59
rfemur -25.5046 -10.0317 16.9939
rtibia 35.6253
rfoot 3.2915 4.34611
rtoes -16.4882
lfemur 29.6692 1.21372 -13.6003
ltibia 6.99722e-014
lfoot -12.9133 -14.3928
ltoes -16.716
100
root 5.62365 16.9431 -20.8873 -8.151 2.26937 -2.98282
lowerback 7.41855 -5.24328 -2.08229
upperback 3.45933 -7.09363 4.42124
thorax 0.276298 -3.64701 6.21269
lowerneck -16.5676 -1.70708 -8.68747
upperneck 24.88 -1.91665 7.05857
head 10.9106 -0.853607 3.769
rclavicle -1.49585e-014 4.6118e-014
rhumerus -51.0819 0.375935 -73.7526
rradius 26.8176
rwrist 38.5522
rhand -28.5782 -13.704
rfingers 7.12502
rthumb -1.94434 -43.6749
lclavicle -1.49585e-014 4.6118e-014
lhumerus -17.0518 -21.287 95.9727
lradius 38.0061
lwrist -14.7893
lhand -42.2295 7.46831
lfingers 7.12502
lthumb -15.1163 36.8963
rfemur -25.8454 -10.2377 16.9991
rtibia 34.8663
rfoot 3.63393 4.62454
rtoes -16.6031
lfemur 30.1777 1.00681 -13.5706
ltibia 1.59028e-014
lfoot -13.5805 -14.5763
ltoes -16.8836
